<mxfile host="app.diagrams.net" modified="2021-09-23T08:31:20.916Z" agent="5.0 (Windows NT 10.0; Win64; x64) AppleWebKit/537.36 (KHTML, like Gecko) Chrome/93.0.4577.82 Safari/537.36" etag="7DId9cvVAxRoqF5feUcR" version="15.3.0" type="github">
  <diagram id="FxomKoe5t59FQyA47BVF" name="Page-1">
    <mxGraphModel dx="981" dy="1695" grid="1" gridSize="10" guides="1" tooltips="1" connect="1" arrows="1" fold="1" page="1" pageScale="1" pageWidth="827" pageHeight="1169" math="0" shadow="0">
      <root>
        <mxCell id="0" />
        <mxCell id="1" parent="0" />
        <mxCell id="e71BVfOYQuSD96jKvDS6-2" style="rounded=0;orthogonalLoop=1;jettySize=auto;html=1;exitX=1;exitY=0;exitDx=0;exitDy=0;entryX=0;entryY=1;entryDx=0;entryDy=0;" edge="1" parent="1" source="jBU1OyLvSAGG9RMUmpyS-43" target="e71BVfOYQuSD96jKvDS6-1">
          <mxGeometry relative="1" as="geometry" />
        </mxCell>
        <mxCell id="e71BVfOYQuSD96jKvDS6-3" value="{a-Z,_}" style="edgeLabel;html=1;align=center;verticalAlign=middle;resizable=0;points=[];" vertex="1" connectable="0" parent="e71BVfOYQuSD96jKvDS6-2">
          <mxGeometry x="0.0863" y="-2" relative="1" as="geometry">
            <mxPoint as="offset" />
          </mxGeometry>
        </mxCell>
        <mxCell id="e71BVfOYQuSD96jKvDS6-8" style="rounded=0;orthogonalLoop=1;jettySize=auto;html=1;exitX=0;exitY=0;exitDx=0;exitDy=0;entryX=0.5;entryY=1;entryDx=0;entryDy=0;" edge="1" parent="1" source="jBU1OyLvSAGG9RMUmpyS-43" target="e71BVfOYQuSD96jKvDS6-7">
          <mxGeometry relative="1" as="geometry" />
        </mxCell>
        <mxCell id="e71BVfOYQuSD96jKvDS6-9" value="-" style="edgeLabel;html=1;align=center;verticalAlign=middle;resizable=0;points=[];" vertex="1" connectable="0" parent="e71BVfOYQuSD96jKvDS6-8">
          <mxGeometry x="0.1507" relative="1" as="geometry">
            <mxPoint as="offset" />
          </mxGeometry>
        </mxCell>
        <mxCell id="jBU1OyLvSAGG9RMUmpyS-43" value="Start" style="ellipse;shape=doubleEllipse;whiteSpace=wrap;html=1;" parent="1" vertex="1">
          <mxGeometry x="750" y="520" width="160" height="160" as="geometry" />
        </mxCell>
        <mxCell id="e71BVfOYQuSD96jKvDS6-1" value="ID" style="ellipse;shape=doubleEllipse;whiteSpace=wrap;html=1;" vertex="1" parent="1">
          <mxGeometry x="1080" y="350" width="60" height="60" as="geometry" />
        </mxCell>
        <mxCell id="e71BVfOYQuSD96jKvDS6-4" style="edgeStyle=orthogonalEdgeStyle;rounded=0;orthogonalLoop=1;jettySize=auto;html=1;exitX=1;exitY=1;exitDx=0;exitDy=0;entryX=1;entryY=0;entryDx=0;entryDy=0;curved=1;" edge="1" parent="1" source="e71BVfOYQuSD96jKvDS6-1" target="e71BVfOYQuSD96jKvDS6-1">
          <mxGeometry relative="1" as="geometry">
            <Array as="points">
              <mxPoint x="1131" y="400" />
              <mxPoint x="1210" y="400" />
              <mxPoint x="1210" y="310" />
              <mxPoint x="1131" y="310" />
            </Array>
          </mxGeometry>
        </mxCell>
        <mxCell id="e71BVfOYQuSD96jKvDS6-5" value="{a-Z,0-9,_}" style="edgeLabel;html=1;align=center;verticalAlign=middle;resizable=0;points=[];" vertex="1" connectable="0" parent="e71BVfOYQuSD96jKvDS6-4">
          <mxGeometry x="0.0751" y="1" relative="1" as="geometry">
            <mxPoint as="offset" />
          </mxGeometry>
        </mxCell>
        <mxCell id="e71BVfOYQuSD96jKvDS6-11" style="edgeStyle=none;rounded=0;orthogonalLoop=1;jettySize=auto;html=1;exitX=0.5;exitY=0;exitDx=0;exitDy=0;entryX=0.5;entryY=1;entryDx=0;entryDy=0;" edge="1" parent="1" source="e71BVfOYQuSD96jKvDS6-7" target="e71BVfOYQuSD96jKvDS6-10">
          <mxGeometry relative="1" as="geometry" />
        </mxCell>
        <mxCell id="e71BVfOYQuSD96jKvDS6-14" value="-" style="edgeLabel;html=1;align=center;verticalAlign=middle;resizable=0;points=[];" vertex="1" connectable="0" parent="e71BVfOYQuSD96jKvDS6-11">
          <mxGeometry x="0.2552" relative="1" as="geometry">
            <mxPoint as="offset" />
          </mxGeometry>
        </mxCell>
        <mxCell id="e71BVfOYQuSD96jKvDS6-7" value="SUB" style="ellipse;shape=doubleEllipse;whiteSpace=wrap;html=1;" vertex="1" parent="1">
          <mxGeometry x="710" y="240" width="60" height="60" as="geometry" />
        </mxCell>
        <mxCell id="e71BVfOYQuSD96jKvDS6-18" style="rounded=0;orthogonalLoop=1;jettySize=auto;html=1;exitX=0;exitY=0;exitDx=0;exitDy=0;entryX=1;entryY=0.5;entryDx=0;entryDy=0;" edge="1" parent="1" source="e71BVfOYQuSD96jKvDS6-10" target="e71BVfOYQuSD96jKvDS6-17">
          <mxGeometry relative="1" as="geometry" />
        </mxCell>
        <mxCell id="e71BVfOYQuSD96jKvDS6-19" value="[" style="edgeLabel;html=1;align=center;verticalAlign=middle;resizable=0;points=[];" vertex="1" connectable="0" parent="e71BVfOYQuSD96jKvDS6-18">
          <mxGeometry x="0.2774" relative="1" as="geometry">
            <mxPoint as="offset" />
          </mxGeometry>
        </mxCell>
        <mxCell id="e71BVfOYQuSD96jKvDS6-23" style="edgeStyle=orthogonalEdgeStyle;curved=1;rounded=0;orthogonalLoop=1;jettySize=auto;html=1;exitX=1;exitY=0;exitDx=0;exitDy=0;entryX=0.5;entryY=1;entryDx=0;entryDy=0;" edge="1" parent="1" source="e71BVfOYQuSD96jKvDS6-10" target="e71BVfOYQuSD96jKvDS6-22">
          <mxGeometry relative="1" as="geometry" />
        </mxCell>
        <mxCell id="e71BVfOYQuSD96jKvDS6-24" value="&lt;h1 class=&quot;entry-title&quot; style=&quot;margin: 0px 0px 20px ; padding: 0px ; border: 0px ; vertical-align: baseline ; clear: both ; line-height: 1.2 ; font-weight: normal ; color: rgb(68 , 68 , 68) ; font-family: &amp;#34;ubuntu&amp;#34; , &amp;#34;helvetica&amp;#34; , &amp;#34;arial&amp;#34; , sans-serif&quot;&gt;&lt;font style=&quot;font-size: 11px&quot;&gt;∑&lt;/font&gt;&lt;font style=&quot;font-size: 11px&quot;&gt;-{EOL,EOF,[ }&lt;/font&gt;&lt;/h1&gt;" style="edgeLabel;html=1;align=center;verticalAlign=middle;resizable=0;points=[];" vertex="1" connectable="0" parent="e71BVfOYQuSD96jKvDS6-23">
          <mxGeometry x="0.2532" y="8" relative="1" as="geometry">
            <mxPoint as="offset" />
          </mxGeometry>
        </mxCell>
        <mxCell id="e71BVfOYQuSD96jKvDS6-10" value="line coment" style="ellipse;shape=doubleEllipse;whiteSpace=wrap;html=1;" vertex="1" parent="1">
          <mxGeometry x="710" y="110" width="60" height="60" as="geometry" />
        </mxCell>
        <mxCell id="e71BVfOYQuSD96jKvDS6-25" style="rounded=0;orthogonalLoop=1;jettySize=auto;html=1;exitX=1;exitY=0;exitDx=0;exitDy=0;entryX=0;entryY=0.5;entryDx=0;entryDy=0;" edge="1" parent="1" source="e71BVfOYQuSD96jKvDS6-17" target="e71BVfOYQuSD96jKvDS6-22">
          <mxGeometry relative="1" as="geometry" />
        </mxCell>
        <mxCell id="e71BVfOYQuSD96jKvDS6-26" value="&lt;h1 class=&quot;entry-title&quot; style=&quot;margin: 0px 0px 20px ; padding: 0px ; border: 0px ; vertical-align: baseline ; clear: both ; line-height: 1.2 ; font-weight: normal ; color: rgb(68 , 68 , 68) ; font-family: &amp;#34;ubuntu&amp;#34; , &amp;#34;helvetica&amp;#34; , &amp;#34;arial&amp;#34; , sans-serif&quot;&gt;&lt;font style=&quot;font-size: 11px&quot;&gt;∑&lt;/font&gt;&lt;font style=&quot;font-size: 11px&quot;&gt;-{EOL,EOF,[ }&lt;/font&gt;&lt;/h1&gt;" style="edgeLabel;html=1;align=center;verticalAlign=middle;resizable=0;points=[];" vertex="1" connectable="0" parent="e71BVfOYQuSD96jKvDS6-25">
          <mxGeometry x="0.108" y="-3" relative="1" as="geometry">
            <mxPoint as="offset" />
          </mxGeometry>
        </mxCell>
        <mxCell id="e71BVfOYQuSD96jKvDS6-28" style="edgeStyle=none;rounded=0;orthogonalLoop=1;jettySize=auto;html=1;exitX=0;exitY=0;exitDx=0;exitDy=0;entryX=1;entryY=1;entryDx=0;entryDy=0;" edge="1" parent="1" source="e71BVfOYQuSD96jKvDS6-17" target="e71BVfOYQuSD96jKvDS6-27">
          <mxGeometry relative="1" as="geometry" />
        </mxCell>
        <mxCell id="e71BVfOYQuSD96jKvDS6-29" value="[" style="edgeLabel;html=1;align=center;verticalAlign=middle;resizable=0;points=[];" vertex="1" connectable="0" parent="e71BVfOYQuSD96jKvDS6-28">
          <mxGeometry x="0.2299" y="-2" relative="1" as="geometry">
            <mxPoint x="14" y="12" as="offset" />
          </mxGeometry>
        </mxCell>
        <mxCell id="e71BVfOYQuSD96jKvDS6-17" value="line coment2" style="ellipse;shape=doubleEllipse;whiteSpace=wrap;html=1;" vertex="1" parent="1">
          <mxGeometry x="550" y="10" width="60" height="60" as="geometry" />
        </mxCell>
        <mxCell id="e71BVfOYQuSD96jKvDS6-22" value="perma line coment" style="ellipse;shape=doubleEllipse;whiteSpace=wrap;html=1;" vertex="1" parent="1">
          <mxGeometry x="790" y="-50" width="60" height="60" as="geometry" />
        </mxCell>
        <mxCell id="e71BVfOYQuSD96jKvDS6-38" style="rounded=0;orthogonalLoop=1;jettySize=auto;html=1;exitX=0;exitY=0.5;exitDx=0;exitDy=0;entryX=1;entryY=1;entryDx=0;entryDy=0;" edge="1" parent="1" source="e71BVfOYQuSD96jKvDS6-27" target="e71BVfOYQuSD96jKvDS6-36">
          <mxGeometry relative="1" as="geometry" />
        </mxCell>
        <mxCell id="e71BVfOYQuSD96jKvDS6-45" value="]" style="edgeLabel;html=1;align=center;verticalAlign=middle;resizable=0;points=[];" vertex="1" connectable="0" parent="e71BVfOYQuSD96jKvDS6-38">
          <mxGeometry x="0.244" y="1" relative="1" as="geometry">
            <mxPoint as="offset" />
          </mxGeometry>
        </mxCell>
        <mxCell id="e71BVfOYQuSD96jKvDS6-27" value="block&lt;br&gt;coment" style="ellipse;shape=doubleEllipse;whiteSpace=wrap;html=1;" vertex="1" parent="1">
          <mxGeometry x="420" y="-80" width="60" height="60" as="geometry" />
        </mxCell>
        <mxCell id="e71BVfOYQuSD96jKvDS6-30" style="edgeStyle=orthogonalEdgeStyle;rounded=0;orthogonalLoop=1;jettySize=auto;html=1;exitX=1;exitY=0.5;exitDx=0;exitDy=0;entryX=0.5;entryY=0;entryDx=0;entryDy=0;curved=1;" edge="1" parent="1" source="e71BVfOYQuSD96jKvDS6-22" target="e71BVfOYQuSD96jKvDS6-22">
          <mxGeometry relative="1" as="geometry">
            <Array as="points">
              <mxPoint x="890" y="-20" />
              <mxPoint x="890" y="-100" />
              <mxPoint x="820" y="-100" />
            </Array>
          </mxGeometry>
        </mxCell>
        <mxCell id="e71BVfOYQuSD96jKvDS6-32" value="&lt;span style=&quot;color: rgba(0 , 0 , 0 , 0) ; font-family: monospace ; font-size: 0px ; background-color: rgb(248 , 249 , 250)&quot;&gt;%3CmxGraphModel%3E%3Croot%3E%3CmxCell%20id%3D%220%22%2F%3E%3CmxCell%20id%3D%221%22%20parent%3D%220%22%2F%3E%3CmxCell%20id%3D%222%22%20value%3D%22line%20coment2%22%20style%3D%22ellipse%3Bshape%3DdoubleEllipse%3BwhiteSpace%3Dwrap%3Bhtml%3D1%3B%22%20vertex%3D%221%22%20parent%3D%221%22%3E%3CmxGeometry%20x%3D%22550%22%20y%3D%2210%22%20width%3D%2260%22%20height%3D%2260%22%20as%3D%22geometry%22%2F%3E%3C%2FmxCell%3E%3C%2Froot%3E%3C%2FmxGraphModel%3E&lt;/span&gt;" style="edgeLabel;html=1;align=center;verticalAlign=middle;resizable=0;points=[];" vertex="1" connectable="0" parent="e71BVfOYQuSD96jKvDS6-30">
          <mxGeometry x="0.1095" y="6" relative="1" as="geometry">
            <mxPoint as="offset" />
          </mxGeometry>
        </mxCell>
        <mxCell id="e71BVfOYQuSD96jKvDS6-33" value="&lt;h1 class=&quot;entry-title&quot; style=&quot;margin: 0px 0px 20px ; padding: 0px ; border: 0px ; vertical-align: baseline ; clear: both ; line-height: 1.2 ; font-weight: normal ; color: rgb(68 , 68 , 68) ; font-family: &amp;#34;ubuntu&amp;#34; , &amp;#34;helvetica&amp;#34; , &amp;#34;arial&amp;#34; , sans-serif&quot;&gt;&lt;font style=&quot;font-size: 11px&quot;&gt;∑&lt;/font&gt;&lt;font style=&quot;font-size: 11px&quot;&gt;-{EOL,EOF}&lt;/font&gt;&lt;/h1&gt;" style="edgeLabel;html=1;align=center;verticalAlign=middle;resizable=0;points=[];" vertex="1" connectable="0" parent="e71BVfOYQuSD96jKvDS6-30">
          <mxGeometry x="0.1784" y="2" relative="1" as="geometry">
            <mxPoint x="11" y="8" as="offset" />
          </mxGeometry>
        </mxCell>
        <mxCell id="e71BVfOYQuSD96jKvDS6-34" style="edgeStyle=orthogonalEdgeStyle;curved=1;rounded=0;orthogonalLoop=1;jettySize=auto;html=1;exitX=1;exitY=0;exitDx=0;exitDy=0;entryX=0;entryY=0;entryDx=0;entryDy=0;" edge="1" parent="1" source="e71BVfOYQuSD96jKvDS6-27" target="e71BVfOYQuSD96jKvDS6-27">
          <mxGeometry relative="1" as="geometry">
            <Array as="points">
              <mxPoint x="490" y="-71" />
              <mxPoint x="490" y="-100" />
              <mxPoint x="500" y="-100" />
              <mxPoint x="500" y="-150" />
              <mxPoint x="429" y="-150" />
            </Array>
          </mxGeometry>
        </mxCell>
        <mxCell id="e71BVfOYQuSD96jKvDS6-35" value="&lt;h1 class=&quot;entry-title&quot; style=&quot;margin: 0px 0px 20px ; padding: 0px ; border: 0px ; vertical-align: baseline ; clear: both ; line-height: 1.2 ; font-weight: normal ; color: rgb(68 , 68 , 68) ; font-family: &amp;#34;ubuntu&amp;#34; , &amp;#34;helvetica&amp;#34; , &amp;#34;arial&amp;#34; , sans-serif&quot;&gt;&lt;font style=&quot;font-size: 11px&quot;&gt;∑&lt;/font&gt;&lt;font style=&quot;font-size: 11px&quot;&gt;-{EOF,] }&lt;/font&gt;&lt;/h1&gt;" style="edgeLabel;html=1;align=center;verticalAlign=middle;resizable=0;points=[];" vertex="1" connectable="0" parent="e71BVfOYQuSD96jKvDS6-34">
          <mxGeometry x="-0.0817" y="5" relative="1" as="geometry">
            <mxPoint as="offset" />
          </mxGeometry>
        </mxCell>
        <mxCell id="e71BVfOYQuSD96jKvDS6-41" style="edgeStyle=orthogonalEdgeStyle;curved=1;rounded=0;orthogonalLoop=1;jettySize=auto;html=1;exitX=0;exitY=1;exitDx=0;exitDy=0;entryX=0.5;entryY=1;entryDx=0;entryDy=0;" edge="1" parent="1" source="e71BVfOYQuSD96jKvDS6-36" target="e71BVfOYQuSD96jKvDS6-27">
          <mxGeometry relative="1" as="geometry">
            <Array as="points">
              <mxPoint x="309" />
              <mxPoint x="450" />
            </Array>
          </mxGeometry>
        </mxCell>
        <mxCell id="e71BVfOYQuSD96jKvDS6-44" value="&lt;h1 class=&quot;entry-title&quot; style=&quot;margin: 0px 0px 20px ; padding: 0px ; border: 0px ; vertical-align: baseline ; clear: both ; line-height: 1.2 ; font-weight: normal ; color: rgb(68 , 68 , 68) ; font-family: &amp;#34;ubuntu&amp;#34; , &amp;#34;helvetica&amp;#34; , &amp;#34;arial&amp;#34; , sans-serif&quot;&gt;&lt;font style=&quot;font-size: 11px&quot;&gt;∑&lt;/font&gt;&lt;font style=&quot;font-size: 11px&quot;&gt;-{EOF,] }&lt;/font&gt;&lt;/h1&gt;" style="edgeLabel;html=1;align=center;verticalAlign=middle;resizable=0;points=[];" vertex="1" connectable="0" parent="e71BVfOYQuSD96jKvDS6-41">
          <mxGeometry x="-0.1088" y="16" relative="1" as="geometry">
            <mxPoint as="offset" />
          </mxGeometry>
        </mxCell>
        <mxCell id="e71BVfOYQuSD96jKvDS6-47" style="rounded=0;orthogonalLoop=1;jettySize=auto;html=1;exitX=0;exitY=0;exitDx=0;exitDy=0;entryX=1;entryY=1;entryDx=0;entryDy=0;" edge="1" parent="1" source="e71BVfOYQuSD96jKvDS6-36" target="e71BVfOYQuSD96jKvDS6-46">
          <mxGeometry relative="1" as="geometry" />
        </mxCell>
        <mxCell id="e71BVfOYQuSD96jKvDS6-48" value="]" style="edgeLabel;html=1;align=center;verticalAlign=middle;resizable=0;points=[];" vertex="1" connectable="0" parent="e71BVfOYQuSD96jKvDS6-47">
          <mxGeometry x="0.257" y="1" relative="1" as="geometry">
            <mxPoint as="offset" />
          </mxGeometry>
        </mxCell>
        <mxCell id="e71BVfOYQuSD96jKvDS6-36" value="block&lt;br&gt;coment2" style="ellipse;shape=doubleEllipse;whiteSpace=wrap;html=1;" vertex="1" parent="1">
          <mxGeometry x="300" y="-140" width="60" height="60" as="geometry" />
        </mxCell>
        <mxCell id="e71BVfOYQuSD96jKvDS6-46" value="block&lt;br&gt;end" style="ellipse;shape=doubleEllipse;whiteSpace=wrap;html=1;" vertex="1" parent="1">
          <mxGeometry x="190" y="-230" width="60" height="60" as="geometry" />
        </mxCell>
      </root>
    </mxGraphModel>
  </diagram>
</mxfile>
